<mxfile host="app.diagrams.net" modified="2023-09-19T15:13:51.108Z" agent="Mozilla/5.0 (Windows NT 10.0; Win64; x64; rv:109.0) Gecko/20100101 Firefox/117.0" etag="D5GrlvNzl0OUrWNISfOu" version="21.7.5" type="device">
  <diagram name="Fluxo geral" id="TeH6VJrooxFwAbJSuoHN">
    <mxGraphModel dx="1035" dy="553" grid="1" gridSize="10" guides="1" tooltips="1" connect="1" arrows="1" fold="1" page="1" pageScale="1" pageWidth="827" pageHeight="1169" background="#ffffff" math="0" shadow="0">
      <root>
        <mxCell id="0" />
        <mxCell id="1" parent="0" />
        <mxCell id="RJkcsbBOVtp3u88Bgt01-1" value="Usuário" style="shape=umlActor;verticalLabelPosition=bottom;verticalAlign=top;html=1;outlineConnect=0;" vertex="1" parent="1">
          <mxGeometry x="40" y="99" width="30" height="60" as="geometry" />
        </mxCell>
        <mxCell id="RJkcsbBOVtp3u88Bgt01-26" style="edgeStyle=orthogonalEdgeStyle;rounded=0;orthogonalLoop=1;jettySize=auto;html=1;exitX=0.25;exitY=1;exitDx=0;exitDy=0;entryX=0;entryY=0.5;entryDx=0;entryDy=0;dashed=1;" edge="1" parent="1" source="RJkcsbBOVtp3u88Bgt01-2" target="RJkcsbBOVtp3u88Bgt01-21">
          <mxGeometry relative="1" as="geometry" />
        </mxCell>
        <mxCell id="RJkcsbBOVtp3u88Bgt01-2" value="Menu Principal()" style="swimlane;fontStyle=0;childLayout=stackLayout;horizontal=1;startSize=30;horizontalStack=0;resizeParent=1;resizeParentMax=0;resizeLast=0;collapsible=1;marginBottom=0;whiteSpace=wrap;html=1;fillColor=#d5e8d4;strokeColor=#82b366;" vertex="1" parent="1">
          <mxGeometry x="160" y="120" width="140" height="120" as="geometry" />
        </mxCell>
        <mxCell id="RJkcsbBOVtp3u88Bgt01-3" value="1. Pratos principais" style="text;strokeColor=none;fillColor=none;align=left;verticalAlign=middle;spacingLeft=4;spacingRight=4;overflow=hidden;points=[[0,0.5],[1,0.5]];portConstraint=eastwest;rotatable=0;whiteSpace=wrap;html=1;" vertex="1" parent="RJkcsbBOVtp3u88Bgt01-2">
          <mxGeometry y="30" width="140" height="30" as="geometry" />
        </mxCell>
        <mxCell id="RJkcsbBOVtp3u88Bgt01-4" value="2. Bebidas" style="text;strokeColor=none;fillColor=none;align=left;verticalAlign=middle;spacingLeft=4;spacingRight=4;overflow=hidden;points=[[0,0.5],[1,0.5]];portConstraint=eastwest;rotatable=0;whiteSpace=wrap;html=1;" vertex="1" parent="RJkcsbBOVtp3u88Bgt01-2">
          <mxGeometry y="60" width="140" height="30" as="geometry" />
        </mxCell>
        <mxCell id="RJkcsbBOVtp3u88Bgt01-5" value="3. Sair" style="text;strokeColor=none;fillColor=none;align=left;verticalAlign=middle;spacingLeft=4;spacingRight=4;overflow=hidden;points=[[0,0.5],[1,0.5]];portConstraint=eastwest;rotatable=0;whiteSpace=wrap;html=1;" vertex="1" parent="RJkcsbBOVtp3u88Bgt01-2">
          <mxGeometry y="90" width="140" height="30" as="geometry" />
        </mxCell>
        <mxCell id="RJkcsbBOVtp3u88Bgt01-7" value="Pratos Principais()" style="swimlane;fontStyle=0;childLayout=stackLayout;horizontal=1;startSize=30;horizontalStack=0;resizeParent=1;resizeParentMax=0;resizeLast=0;collapsible=1;marginBottom=0;whiteSpace=wrap;html=1;fillColor=#fff2cc;strokeColor=#d6b656;" vertex="1" parent="1">
          <mxGeometry x="360" y="25" width="140" height="150" as="geometry" />
        </mxCell>
        <mxCell id="RJkcsbBOVtp3u88Bgt01-8" value="1. Sushi" style="text;strokeColor=none;fillColor=none;align=left;verticalAlign=middle;spacingLeft=4;spacingRight=4;overflow=hidden;points=[[0,0.5],[1,0.5]];portConstraint=eastwest;rotatable=0;whiteSpace=wrap;html=1;" vertex="1" parent="RJkcsbBOVtp3u88Bgt01-7">
          <mxGeometry y="30" width="140" height="30" as="geometry" />
        </mxCell>
        <mxCell id="RJkcsbBOVtp3u88Bgt01-9" value="2. Macarrão" style="text;strokeColor=none;fillColor=none;align=left;verticalAlign=middle;spacingLeft=4;spacingRight=4;overflow=hidden;points=[[0,0.5],[1,0.5]];portConstraint=eastwest;rotatable=0;whiteSpace=wrap;html=1;" vertex="1" parent="RJkcsbBOVtp3u88Bgt01-7">
          <mxGeometry y="60" width="140" height="30" as="geometry" />
        </mxCell>
        <mxCell id="RJkcsbBOVtp3u88Bgt01-10" value="3. Hamburguer" style="text;strokeColor=none;fillColor=none;align=left;verticalAlign=middle;spacingLeft=4;spacingRight=4;overflow=hidden;points=[[0,0.5],[1,0.5]];portConstraint=eastwest;rotatable=0;whiteSpace=wrap;html=1;" vertex="1" parent="RJkcsbBOVtp3u88Bgt01-7">
          <mxGeometry y="90" width="140" height="30" as="geometry" />
        </mxCell>
        <mxCell id="RJkcsbBOVtp3u88Bgt01-13" value="4. Cachorro-quente" style="text;strokeColor=none;fillColor=none;align=left;verticalAlign=middle;spacingLeft=4;spacingRight=4;overflow=hidden;points=[[0,0.5],[1,0.5]];portConstraint=eastwest;rotatable=0;whiteSpace=wrap;html=1;" vertex="1" parent="RJkcsbBOVtp3u88Bgt01-7">
          <mxGeometry y="120" width="140" height="30" as="geometry" />
        </mxCell>
        <mxCell id="RJkcsbBOVtp3u88Bgt01-14" value="Bebidas()" style="swimlane;fontStyle=0;childLayout=stackLayout;horizontal=1;startSize=30;horizontalStack=0;resizeParent=1;resizeParentMax=0;resizeLast=0;collapsible=1;marginBottom=0;whiteSpace=wrap;html=1;fillColor=#b1ddf0;strokeColor=#10739e;" vertex="1" parent="1">
          <mxGeometry x="360" y="200" width="140" height="120" as="geometry" />
        </mxCell>
        <mxCell id="RJkcsbBOVtp3u88Bgt01-15" value="1. Sucos" style="text;strokeColor=none;fillColor=none;align=left;verticalAlign=middle;spacingLeft=4;spacingRight=4;overflow=hidden;points=[[0,0.5],[1,0.5]];portConstraint=eastwest;rotatable=0;whiteSpace=wrap;html=1;" vertex="1" parent="RJkcsbBOVtp3u88Bgt01-14">
          <mxGeometry y="30" width="140" height="30" as="geometry" />
        </mxCell>
        <mxCell id="RJkcsbBOVtp3u88Bgt01-19" value="2. Refrigerantes" style="text;strokeColor=none;fillColor=none;align=left;verticalAlign=middle;spacingLeft=4;spacingRight=4;overflow=hidden;points=[[0,0.5],[1,0.5]];portConstraint=eastwest;rotatable=0;whiteSpace=wrap;html=1;" vertex="1" parent="RJkcsbBOVtp3u88Bgt01-14">
          <mxGeometry y="60" width="140" height="30" as="geometry" />
        </mxCell>
        <mxCell id="RJkcsbBOVtp3u88Bgt01-16" value="3. Agua" style="text;strokeColor=none;fillColor=none;align=left;verticalAlign=middle;spacingLeft=4;spacingRight=4;overflow=hidden;points=[[0,0.5],[1,0.5]];portConstraint=eastwest;rotatable=0;whiteSpace=wrap;html=1;" vertex="1" parent="RJkcsbBOVtp3u88Bgt01-14">
          <mxGeometry y="90" width="140" height="30" as="geometry" />
        </mxCell>
        <mxCell id="RJkcsbBOVtp3u88Bgt01-20" style="edgeStyle=orthogonalEdgeStyle;rounded=0;orthogonalLoop=1;jettySize=auto;html=1;exitX=1;exitY=0.5;exitDx=0;exitDy=0;entryX=0.002;entryY=0.147;entryDx=0;entryDy=0;dashed=1;entryPerimeter=0;" edge="1" parent="1" source="RJkcsbBOVtp3u88Bgt01-4" target="RJkcsbBOVtp3u88Bgt01-14">
          <mxGeometry relative="1" as="geometry" />
        </mxCell>
        <mxCell id="RJkcsbBOVtp3u88Bgt01-21" value="Sair()" style="swimlane;fontStyle=0;childLayout=stackLayout;horizontal=1;startSize=30;horizontalStack=0;resizeParent=1;resizeParentMax=0;resizeLast=0;collapsible=1;marginBottom=0;whiteSpace=wrap;html=1;fillColor=#f8cecc;strokeColor=#b85450;" vertex="1" parent="1">
          <mxGeometry x="360" y="340" width="140" height="30" as="geometry" />
        </mxCell>
        <mxCell id="RJkcsbBOVtp3u88Bgt01-43" style="edgeStyle=orthogonalEdgeStyle;rounded=0;orthogonalLoop=1;jettySize=auto;html=1;exitX=0.5;exitY=1;exitDx=0;exitDy=0;entryX=0.5;entryY=0;entryDx=0;entryDy=0;dashed=1;" edge="1" parent="1" source="RJkcsbBOVtp3u88Bgt01-28" target="RJkcsbBOVtp3u88Bgt01-39">
          <mxGeometry relative="1" as="geometry" />
        </mxCell>
        <mxCell id="RJkcsbBOVtp3u88Bgt01-28" value="Personalização*()" style="swimlane;fontStyle=0;childLayout=stackLayout;horizontal=1;startSize=30;horizontalStack=0;resizeParent=1;resizeParentMax=0;resizeLast=0;collapsible=1;marginBottom=0;whiteSpace=wrap;html=1;fillColor=#ffff88;strokeColor=#36393d;" vertex="1" parent="1">
          <mxGeometry x="590" y="25" width="140" height="150" as="geometry" />
        </mxCell>
        <mxCell id="RJkcsbBOVtp3u88Bgt01-29" value="Ingrediente 1" style="text;strokeColor=none;fillColor=none;align=left;verticalAlign=middle;spacingLeft=4;spacingRight=4;overflow=hidden;points=[[0,0.5],[1,0.5]];portConstraint=eastwest;rotatable=0;whiteSpace=wrap;html=1;" vertex="1" parent="RJkcsbBOVtp3u88Bgt01-28">
          <mxGeometry y="30" width="140" height="30" as="geometry" />
        </mxCell>
        <mxCell id="RJkcsbBOVtp3u88Bgt01-30" value="Ingrediente 2" style="text;strokeColor=none;fillColor=none;align=left;verticalAlign=middle;spacingLeft=4;spacingRight=4;overflow=hidden;points=[[0,0.5],[1,0.5]];portConstraint=eastwest;rotatable=0;whiteSpace=wrap;html=1;" vertex="1" parent="RJkcsbBOVtp3u88Bgt01-28">
          <mxGeometry y="60" width="140" height="30" as="geometry" />
        </mxCell>
        <mxCell id="RJkcsbBOVtp3u88Bgt01-31" value="Ingrediente 3" style="text;strokeColor=none;fillColor=none;align=left;verticalAlign=middle;spacingLeft=4;spacingRight=4;overflow=hidden;points=[[0,0.5],[1,0.5]];portConstraint=eastwest;rotatable=0;whiteSpace=wrap;html=1;" vertex="1" parent="RJkcsbBOVtp3u88Bgt01-28">
          <mxGeometry y="90" width="140" height="30" as="geometry" />
        </mxCell>
        <mxCell id="RJkcsbBOVtp3u88Bgt01-32" value="Ingrediente 4" style="text;strokeColor=none;fillColor=none;align=left;verticalAlign=middle;spacingLeft=4;spacingRight=4;overflow=hidden;points=[[0,0.5],[1,0.5]];portConstraint=eastwest;rotatable=0;whiteSpace=wrap;html=1;" vertex="1" parent="RJkcsbBOVtp3u88Bgt01-28">
          <mxGeometry y="120" width="140" height="30" as="geometry" />
        </mxCell>
        <mxCell id="RJkcsbBOVtp3u88Bgt01-6" style="edgeStyle=orthogonalEdgeStyle;rounded=0;orthogonalLoop=1;jettySize=auto;html=1;exitX=0.5;exitY=0.5;exitDx=0;exitDy=0;exitPerimeter=0;entryX=0.011;entryY=0.08;entryDx=0;entryDy=0;entryPerimeter=0;dashed=1;" edge="1" parent="1" source="RJkcsbBOVtp3u88Bgt01-1" target="RJkcsbBOVtp3u88Bgt01-2">
          <mxGeometry relative="1" as="geometry">
            <mxPoint x="150" y="170.52941176470586" as="targetPoint" />
          </mxGeometry>
        </mxCell>
        <mxCell id="RJkcsbBOVtp3u88Bgt01-37" value="Escolha Caso" style="shape=umlFrame;whiteSpace=wrap;html=1;pointerEvents=0;fillColor=#f8cecc;strokeColor=#b85450;gradientColor=#ea6b66;" vertex="1" parent="1">
          <mxGeometry x="140" y="20" width="620" height="160" as="geometry" />
        </mxCell>
        <mxCell id="RJkcsbBOVtp3u88Bgt01-38" value="* O array do pedido deve ser limpo e serão salvos novos itens" style="text;html=1;strokeColor=none;fillColor=none;align=center;verticalAlign=middle;whiteSpace=wrap;rounded=0;" vertex="1" parent="1">
          <mxGeometry x="460" y="400" width="429" height="12" as="geometry" />
        </mxCell>
        <mxCell id="RJkcsbBOVtp3u88Bgt01-48" style="edgeStyle=orthogonalEdgeStyle;rounded=0;orthogonalLoop=1;jettySize=auto;html=1;exitX=1;exitY=0.5;exitDx=0;exitDy=0;entryX=0.5;entryY=0;entryDx=0;entryDy=0;dashed=1;" edge="1" parent="1" source="RJkcsbBOVtp3u88Bgt01-39" target="RJkcsbBOVtp3u88Bgt01-47">
          <mxGeometry relative="1" as="geometry">
            <Array as="points">
              <mxPoint x="870" y="225" />
            </Array>
          </mxGeometry>
        </mxCell>
        <mxCell id="RJkcsbBOVtp3u88Bgt01-49" value="NAO" style="edgeLabel;html=1;align=center;verticalAlign=middle;resizable=0;points=[];" vertex="1" connectable="0" parent="RJkcsbBOVtp3u88Bgt01-48">
          <mxGeometry x="-0.2048" relative="1" as="geometry">
            <mxPoint x="2" as="offset" />
          </mxGeometry>
        </mxCell>
        <mxCell id="RJkcsbBOVtp3u88Bgt01-39" value="Bebida? S/N" style="swimlane;fontStyle=0;childLayout=stackLayout;horizontal=1;startSize=30;horizontalStack=0;resizeParent=1;resizeParentMax=0;resizeLast=0;collapsible=1;marginBottom=0;whiteSpace=wrap;html=1;fillColor=#b1ddf0;strokeColor=#10739e;" vertex="1" parent="1">
          <mxGeometry x="590" y="210" width="140" height="30" as="geometry" />
        </mxCell>
        <mxCell id="RJkcsbBOVtp3u88Bgt01-44" style="edgeStyle=orthogonalEdgeStyle;rounded=0;orthogonalLoop=1;jettySize=auto;html=1;exitX=0;exitY=0.5;exitDx=0;exitDy=0;entryX=0.994;entryY=0.205;entryDx=0;entryDy=0;entryPerimeter=0;dashed=1;" edge="1" parent="1" source="RJkcsbBOVtp3u88Bgt01-39" target="RJkcsbBOVtp3u88Bgt01-14">
          <mxGeometry relative="1" as="geometry" />
        </mxCell>
        <mxCell id="RJkcsbBOVtp3u88Bgt01-46" value="SIM" style="edgeLabel;html=1;align=center;verticalAlign=middle;resizable=0;points=[];" vertex="1" connectable="0" parent="RJkcsbBOVtp3u88Bgt01-44">
          <mxGeometry x="-0.1437" relative="1" as="geometry">
            <mxPoint as="offset" />
          </mxGeometry>
        </mxCell>
        <mxCell id="RJkcsbBOVtp3u88Bgt01-51" style="edgeStyle=orthogonalEdgeStyle;rounded=0;orthogonalLoop=1;jettySize=auto;html=1;exitX=0.5;exitY=1;exitDx=0;exitDy=0;entryX=0.5;entryY=0;entryDx=0;entryDy=0;" edge="1" parent="1" source="RJkcsbBOVtp3u88Bgt01-47" target="RJkcsbBOVtp3u88Bgt01-50">
          <mxGeometry relative="1" as="geometry" />
        </mxCell>
        <mxCell id="RJkcsbBOVtp3u88Bgt01-47" value="Listagem do pedido" style="swimlane;fontStyle=0;childLayout=stackLayout;horizontal=1;startSize=30;horizontalStack=0;resizeParent=1;resizeParentMax=0;resizeLast=0;collapsible=1;marginBottom=0;whiteSpace=wrap;html=1;fillColor=#b1ddf0;strokeColor=#10739e;" vertex="1" parent="1">
          <mxGeometry x="800" y="260" width="140" height="30" as="geometry" />
        </mxCell>
        <mxCell id="RJkcsbBOVtp3u88Bgt01-52" style="edgeStyle=orthogonalEdgeStyle;rounded=0;orthogonalLoop=1;jettySize=auto;html=1;exitX=0;exitY=0.5;exitDx=0;exitDy=0;entryX=1;entryY=0.5;entryDx=0;entryDy=0;dashed=1;" edge="1" parent="1" source="RJkcsbBOVtp3u88Bgt01-50" target="RJkcsbBOVtp3u88Bgt01-21">
          <mxGeometry relative="1" as="geometry" />
        </mxCell>
        <mxCell id="RJkcsbBOVtp3u88Bgt01-60" value="SIM" style="edgeLabel;html=1;align=center;verticalAlign=middle;resizable=0;points=[];" vertex="1" connectable="0" parent="RJkcsbBOVtp3u88Bgt01-52">
          <mxGeometry x="-0.2776" y="1" relative="1" as="geometry">
            <mxPoint x="6" y="-1" as="offset" />
          </mxGeometry>
        </mxCell>
        <mxCell id="RJkcsbBOVtp3u88Bgt01-50" value="Confirmar pedido?" style="swimlane;fontStyle=0;childLayout=stackLayout;horizontal=1;startSize=30;horizontalStack=0;resizeParent=1;resizeParentMax=0;resizeLast=0;collapsible=1;marginBottom=0;whiteSpace=wrap;html=1;fillColor=#b1ddf0;strokeColor=#10739e;" vertex="1" parent="1">
          <mxGeometry x="800" y="341" width="140" height="30" as="geometry" />
        </mxCell>
        <mxCell id="RJkcsbBOVtp3u88Bgt01-59" style="edgeStyle=orthogonalEdgeStyle;rounded=0;orthogonalLoop=1;jettySize=auto;html=1;entryX=0.01;entryY=0.678;entryDx=0;entryDy=0;entryPerimeter=0;dashed=1;" edge="1" parent="1">
          <mxGeometry relative="1" as="geometry">
            <mxPoint x="162" y="140.04000000000002" as="targetPoint" />
            <mxPoint x="120" y="140" as="sourcePoint" />
            <Array as="points">
              <mxPoint x="151" y="140.2" />
              <mxPoint x="151" y="140.2" />
            </Array>
          </mxGeometry>
        </mxCell>
        <mxCell id="RJkcsbBOVtp3u88Bgt01-53" style="edgeStyle=orthogonalEdgeStyle;rounded=0;orthogonalLoop=1;jettySize=auto;html=1;endArrow=none;endFill=0;dashed=1;" edge="1" parent="1">
          <mxGeometry relative="1" as="geometry">
            <mxPoint x="120" y="140" as="targetPoint" />
            <mxPoint x="869.9971434161613" y="400" as="sourcePoint" />
          </mxGeometry>
        </mxCell>
        <mxCell id="RJkcsbBOVtp3u88Bgt01-61" value="NAO" style="edgeLabel;html=1;align=center;verticalAlign=middle;resizable=0;points=[];" vertex="1" connectable="0" parent="RJkcsbBOVtp3u88Bgt01-53">
          <mxGeometry x="-0.0531" y="2" relative="1" as="geometry">
            <mxPoint x="21" y="-2" as="offset" />
          </mxGeometry>
        </mxCell>
        <mxCell id="RJkcsbBOVtp3u88Bgt01-54" style="edgeStyle=orthogonalEdgeStyle;rounded=0;orthogonalLoop=1;jettySize=auto;html=1;exitX=0.5;exitY=1;exitDx=0;exitDy=0;endArrow=none;endFill=0;dashed=1;" edge="1" parent="1" source="RJkcsbBOVtp3u88Bgt01-50">
          <mxGeometry relative="1" as="geometry">
            <mxPoint x="870.14" y="400" as="targetPoint" />
          </mxGeometry>
        </mxCell>
        <mxCell id="RJkcsbBOVtp3u88Bgt01-65" value="* O menu de personalização se adapta a escolha feita nos pratos principais" style="text;html=1;strokeColor=none;fillColor=none;align=center;verticalAlign=middle;whiteSpace=wrap;rounded=0;" vertex="1" parent="1">
          <mxGeometry x="341" y="7" width="429" height="12" as="geometry" />
        </mxCell>
        <mxCell id="RJkcsbBOVtp3u88Bgt01-66" style="edgeStyle=orthogonalEdgeStyle;rounded=0;orthogonalLoop=1;jettySize=auto;html=1;exitX=1;exitY=0.5;exitDx=0;exitDy=0;entryX=0;entryY=0.5;entryDx=0;entryDy=0;dashed=1;" edge="1" parent="1" source="RJkcsbBOVtp3u88Bgt01-19" target="RJkcsbBOVtp3u88Bgt01-47">
          <mxGeometry relative="1" as="geometry" />
        </mxCell>
        <mxCell id="RJkcsbBOVtp3u88Bgt01-11" style="edgeStyle=orthogonalEdgeStyle;rounded=0;orthogonalLoop=1;jettySize=auto;html=1;dashed=1;entryX=0.003;entryY=0.101;entryDx=0;entryDy=0;entryPerimeter=0;" edge="1" parent="1" target="RJkcsbBOVtp3u88Bgt01-7">
          <mxGeometry relative="1" as="geometry">
            <mxPoint x="300" y="170" as="sourcePoint" />
            <mxPoint x="350" y="40" as="targetPoint" />
            <Array as="points">
              <mxPoint x="300" y="170" />
              <mxPoint x="330" y="170" />
              <mxPoint x="330" y="40" />
            </Array>
          </mxGeometry>
        </mxCell>
        <mxCell id="RJkcsbBOVtp3u88Bgt01-67" style="edgeStyle=orthogonalEdgeStyle;rounded=0;orthogonalLoop=1;jettySize=auto;html=1;exitX=1;exitY=0.5;exitDx=0;exitDy=0;entryX=0.006;entryY=0.095;entryDx=0;entryDy=0;entryPerimeter=0;dashed=1;" edge="1" parent="1" source="RJkcsbBOVtp3u88Bgt01-8" target="RJkcsbBOVtp3u88Bgt01-28">
          <mxGeometry relative="1" as="geometry" />
        </mxCell>
      </root>
    </mxGraphModel>
  </diagram>
</mxfile>
